<svg xmlns="http://www.w3.org/2000/svg" viewBox="0 0 1400 420" fill="none">
  <defs>
    <linearGradient id="bg" x1="0" y1="0" x2="1400" y2="420" gradientUnits="userSpaceOnUse">
      <stop offset="0%" stop-color="#0f0f1e"/>
      <stop offset="50%" stop-color="#151530"/>
      <stop offset="100%" stop-color="#0f0f1e"/>
    </linearGradient>
    <linearGradient id="screen" x1="0" y1="0" x2="0" y2="1">
      <stop offset="0%" stop-color="#1c1c30"/>
      <stop offset="100%" stop-color="#121225"/>
    </linearGradient>
    <linearGradient id="gold" x1="0" y1="0" x2="1" y2="0">
      <stop offset="0%" stop-color="#c9a962"/>
      <stop offset="100%" stop-color="#e8d5a3"/>
    </linearGradient>
    <linearGradient id="cardBg" x1="0" y1="0" x2="0" y2="1">
      <stop offset="0%" stop-color="#1a1a32"/>
      <stop offset="100%" stop-color="#111128"/>
    </linearGradient>
    <filter id="glow">
      <feGaussianBlur stdDeviation="2.5" result="b"/>
      <feMerge><feMergeNode in="b"/><feMergeNode in="SourceGraphic"/></feMerge>
    </filter>
    <filter id="goldGlow">
      <feGaussianBlur stdDeviation="4" result="b"/>
      <feMerge><feMergeNode in="b"/><feMergeNode in="SourceGraphic"/></feMerge>
    </filter>
  </defs>

  <!-- Background -->
  <rect width="1400" height="420" fill="url(#bg)"/>

  <!-- Subtle dot grid -->
  <g opacity="0.035" fill="#fff">
    <circle cx="50" cy="50" r="1"/><circle cx="50" cy="100" r="1"/><circle cx="50" cy="150" r="1"/><circle cx="50" cy="200" r="1"/><circle cx="50" cy="250" r="1"/><circle cx="50" cy="300" r="1"/><circle cx="50" cy="350" r="1"/>
    <circle cx="150" cy="50" r="1"/><circle cx="150" cy="100" r="1"/><circle cx="150" cy="150" r="1"/><circle cx="150" cy="200" r="1"/><circle cx="150" cy="250" r="1"/><circle cx="150" cy="300" r="1"/><circle cx="150" cy="350" r="1"/>
    <circle cx="250" cy="50" r="1"/><circle cx="250" cy="100" r="1"/><circle cx="250" cy="150" r="1"/><circle cx="250" cy="200" r="1"/><circle cx="250" cy="250" r="1"/><circle cx="250" cy="300" r="1"/><circle cx="250" cy="350" r="1"/>
    <circle cx="350" cy="50" r="1"/><circle cx="350" cy="100" r="1"/><circle cx="350" cy="150" r="1"/><circle cx="350" cy="200" r="1"/><circle cx="350" cy="250" r="1"/><circle cx="350" cy="300" r="1"/><circle cx="350" cy="350" r="1"/>
    <circle cx="450" cy="50" r="1"/><circle cx="450" cy="100" r="1"/><circle cx="450" cy="150" r="1"/><circle cx="450" cy="200" r="1"/><circle cx="450" cy="250" r="1"/><circle cx="450" cy="300" r="1"/><circle cx="450" cy="350" r="1"/>
    <circle cx="550" cy="50" r="1"/><circle cx="550" cy="100" r="1"/><circle cx="550" cy="150" r="1"/><circle cx="550" cy="200" r="1"/><circle cx="550" cy="250" r="1"/><circle cx="550" cy="300" r="1"/><circle cx="550" cy="350" r="1"/>
    <circle cx="650" cy="50" r="1"/><circle cx="650" cy="100" r="1"/><circle cx="650" cy="150" r="1"/><circle cx="650" cy="200" r="1"/><circle cx="650" cy="250" r="1"/><circle cx="650" cy="300" r="1"/><circle cx="650" cy="350" r="1"/>
    <circle cx="750" cy="50" r="1"/><circle cx="750" cy="100" r="1"/><circle cx="750" cy="150" r="1"/><circle cx="750" cy="200" r="1"/><circle cx="750" cy="250" r="1"/><circle cx="750" cy="300" r="1"/><circle cx="750" cy="350" r="1"/>
    <circle cx="850" cy="50" r="1"/><circle cx="850" cy="100" r="1"/><circle cx="850" cy="150" r="1"/><circle cx="850" cy="200" r="1"/><circle cx="850" cy="250" r="1"/><circle cx="850" cy="300" r="1"/><circle cx="850" cy="350" r="1"/>
    <circle cx="950" cy="50" r="1"/><circle cx="950" cy="100" r="1"/><circle cx="950" cy="150" r="1"/><circle cx="950" cy="200" r="1"/><circle cx="950" cy="250" r="1"/><circle cx="950" cy="300" r="1"/><circle cx="950" cy="350" r="1"/>
    <circle cx="1050" cy="50" r="1"/><circle cx="1050" cy="100" r="1"/><circle cx="1050" cy="150" r="1"/><circle cx="1050" cy="200" r="1"/><circle cx="1050" cy="250" r="1"/><circle cx="1050" cy="300" r="1"/><circle cx="1050" cy="350" r="1"/>
    <circle cx="1150" cy="50" r="1"/><circle cx="1150" cy="100" r="1"/><circle cx="1150" cy="150" r="1"/><circle cx="1150" cy="200" r="1"/><circle cx="1150" cy="250" r="1"/><circle cx="1150" cy="300" r="1"/><circle cx="1150" cy="350" r="1"/>
    <circle cx="1250" cy="50" r="1"/><circle cx="1250" cy="100" r="1"/><circle cx="1250" cy="150" r="1"/><circle cx="1250" cy="200" r="1"/><circle cx="1250" cy="250" r="1"/><circle cx="1250" cy="300" r="1"/><circle cx="1250" cy="350" r="1"/>
    <circle cx="1350" cy="50" r="1"/><circle cx="1350" cy="100" r="1"/><circle cx="1350" cy="150" r="1"/><circle cx="1350" cy="200" r="1"/><circle cx="1350" cy="250" r="1"/><circle cx="1350" cy="300" r="1"/><circle cx="1350" cy="350" r="1"/>
  </g>

  <!-- Step number circles (background decoration) -->
  <circle cx="115" cy="60" r="16" fill="none" stroke="#c9a962" stroke-width="1" opacity="0.25"/>
  <text x="115" y="65" text-anchor="middle" font-family="Arial" font-size="14" font-weight="700" fill="#c9a962" opacity="0.4">1</text>

  <circle cx="390" cy="60" r="16" fill="none" stroke="#c9a962" stroke-width="1" opacity="0.25"/>
  <text x="390" y="65" text-anchor="middle" font-family="Arial" font-size="14" font-weight="700" fill="#c9a962" opacity="0.4">2</text>

  <circle cx="700" cy="60" r="16" fill="none" stroke="#c9a962" stroke-width="1" opacity="0.25"/>
  <text x="700" y="65" text-anchor="middle" font-family="Arial" font-size="14" font-weight="700" fill="#c9a962" opacity="0.4">3</text>

  <circle cx="990" cy="60" r="16" fill="none" stroke="#c9a962" stroke-width="1" opacity="0.25"/>
  <text x="990" y="65" text-anchor="middle" font-family="Arial" font-size="14" font-weight="700" fill="#c9a962" opacity="0.4">4</text>

  <circle cx="1270" cy="60" r="16" fill="none" stroke="#c9a962" stroke-width="1" opacity="0.25"/>
  <text x="1270" y="65" text-anchor="middle" font-family="Arial" font-size="14" font-weight="700" fill="#c9a962" opacity="0.4">5</text>


  <!-- ========== STEP 1: TOURNAGE ========== -->
  <g transform="translate(30, 90)">
    <!-- Card -->
    <rect width="170" height="220" rx="10" fill="url(#cardBg)" stroke="#2a2a50" stroke-width="1"/>

    <!-- Camera body -->
    <g transform="translate(35, 30)">
      <!-- Main body -->
      <rect x="0" y="20" width="75" height="50" rx="6" fill="#2a2a2a" stroke="#444" stroke-width="1.2"/>
      <!-- Top handle -->
      <rect x="15" y="10" width="45" height="14" rx="4" fill="#333" stroke="#444" stroke-width="0.8"/>
      <rect x="30" y="4" width="15" height="10" rx="3" fill="#3a3a3a" stroke="#444" stroke-width="0.8"/>
      <!-- Lens mount -->
      <rect x="75" y="25" width="12" height="40" rx="3" fill="#333" stroke="#444" stroke-width="0.8"/>
      <!-- Lens -->
      <rect x="87" y="28" width="20" height="34" rx="4" fill="#252525" stroke="#555" stroke-width="1"/>
      <circle cx="97" cy="45" r="12" fill="#1a1a1a" stroke="#666" stroke-width="1"/>
      <circle cx="97" cy="45" r="8" fill="#111" stroke="#555" stroke-width="0.5"/>
      <circle cx="97" cy="45" r="4" fill="#c9a962" opacity="0.3" filter="url(#glow)"/>
      <!-- Screen back -->
      <rect x="5" y="26" width="30" height="20" rx="2" fill="#111" stroke="#555" stroke-width="0.5"/>
      <rect x="7" y="28" width="26" height="16" rx="1" fill="#1e3a1e" opacity="0.6"/>
      <!-- REC indicator -->
      <circle cx="15" cy="32" r="2.5" fill="#e74c3c" filter="url(#glow)"/>
      <text x="21" y="35" font-family="Arial" font-size="5" font-weight="700" fill="#e74c3c">REC</text>
      <!-- Buttons -->
      <circle cx="10" cy="55" r="3" fill="#444" stroke="#555" stroke-width="0.5"/>
      <circle cx="22" cy="55" r="3" fill="#444" stroke="#555" stroke-width="0.5"/>
      <rect x="30" y="52" width="12" height="6" rx="2" fill="#c9a962" opacity="0.5"/>
    </g>

    <!-- Tripod -->
    <g transform="translate(55, 108)" opacity="0.6">
      <rect x="10" y="0" width="4" height="8" rx="1" fill="#444"/>
      <line x1="12" y1="8" x2="-2" y2="45" stroke="#555" stroke-width="1.8" stroke-linecap="round"/>
      <line x1="12" y1="8" x2="12" y2="48" stroke="#555" stroke-width="1.8" stroke-linecap="round"/>
      <line x1="12" y1="8" x2="26" y2="45" stroke="#555" stroke-width="1.8" stroke-linecap="round"/>
    </g>

    <!-- Label -->
    <text x="85" y="190" text-anchor="middle" font-family="Arial, sans-serif" font-size="11" font-weight="700" fill="#c9a962" letter-spacing="2.5">TOURNAGE</text>
    <text x="85" y="205" text-anchor="middle" font-family="Arial" font-size="8" fill="#555" letter-spacing="1">Captation</text>
  </g>


  <!-- ========== ARROW 1→2 ========== -->
  <g opacity="0.6">
    <line x1="215" y1="200" x2="270" y2="200" stroke="#c9a962" stroke-width="1.2" stroke-dasharray="5 4"/>
    <polygon points="268,196 278,200 268,204" fill="#c9a962" opacity="0.8"/>
  </g>


  <!-- ========== STEP 2: MONTAGE ========== -->
  <g transform="translate(280, 90)">
    <!-- Card -->
    <rect width="220" height="220" rx="10" fill="url(#cardBg)" stroke="#2a2a50" stroke-width="1"/>

    <!-- Screen -->
    <rect x="12" y="14" width="196" height="130" rx="5" fill="#0d0d1a" stroke="#333" stroke-width="0.8"/>

    <!-- Preview -->
    <rect x="18" y="20" width="118" height="68" rx="3" fill="#1a1a2e"/>
    <rect x="22" y="24" width="110" height="60" rx="2" fill="#222240"/>
    <polygon points="68,46 82,54 68,62" fill="#c9a962" opacity="0.6"/>

    <!-- Inspector -->
    <rect x="142" y="20" width="60" height="68" rx="3" fill="#1a1a2e"/>
    <rect x="148" y="27" width="35" height="3" rx="1" fill="#444" opacity="0.6"/>
    <rect x="148" y="34" width="48" height="2.5" rx="1" fill="#333"/>
    <rect x="148" y="40" width="40" height="2.5" rx="1" fill="#333"/>
    <rect x="148" y="46" width="45" height="2.5" rx="1" fill="#333"/>
    <rect x="148" y="52" width="30" height="2.5" rx="1" fill="#333"/>
    <rect x="148" y="60" width="22" height="6" rx="2" fill="#c9a962" opacity="0.35"/>
    <rect x="174" y="60" width="22" height="6" rx="2" fill="#444" opacity="0.35"/>

    <!-- Timeline -->
    <rect x="18" y="94" width="182" height="42" rx="3" fill="#111125"/>
    <!-- Tracks -->
    <rect x="24" y="100" width="72" height="6" rx="2" fill="#e74c3c" opacity="0.65"/>
    <rect x="100" y="100" width="48" height="6" rx="2" fill="#e67e22" opacity="0.65"/>
    <rect x="152" y="100" width="42" height="6" rx="2" fill="#e74c3c" opacity="0.45"/>

    <rect x="24" y="110" width="42" height="6" rx="2" fill="#3498db" opacity="0.55"/>
    <rect x="70" y="110" width="65" height="6" rx="2" fill="#2980b9" opacity="0.55"/>
    <rect x="139" y="110" width="55" height="6" rx="2" fill="#3498db" opacity="0.4"/>

    <rect x="24" y="120" width="125" height="4" rx="2" fill="#2ecc71" opacity="0.35"/>
    <rect x="153" y="120" width="41" height="4" rx="2" fill="#27ae60" opacity="0.35"/>

    <!-- Playhead -->
    <line x1="108" y1="97" x2="108" y2="133" stroke="#c9a962" stroke-width="1.2" filter="url(#glow)"/>
    <polygon points="105,96 111,96 108,93" fill="#c9a962"/>

    <!-- Tabs -->
    <g transform="translate(18, 140)">
      <rect width="30" height="10" rx="2" fill="#c9a962" opacity="0.25"/>
      <text x="15" y="7.5" text-anchor="middle" font-family="Arial" font-size="5" fill="#c9a962" opacity="0.7">Edit</text>
      <rect x="34" width="30" height="10" rx="2" fill="#333" opacity="0.4"/>
      <text x="49" y="7.5" text-anchor="middle" font-family="Arial" font-size="5" fill="#666">Color</text>
      <rect x="68" width="34" height="10" rx="2" fill="#333" opacity="0.4"/>
      <text x="85" y="7.5" text-anchor="middle" font-family="Arial" font-size="5" fill="#666">Fusion</text>
      <rect x="106" width="36" height="10" rx="2" fill="#333" opacity="0.4"/>
      <text x="124" y="7.5" text-anchor="middle" font-family="Arial" font-size="5" fill="#666">Deliver</text>
    </g>

    <!-- Label -->
    <text x="110" y="185" text-anchor="middle" font-family="Arial, sans-serif" font-size="11" font-weight="700" fill="#c9a962" letter-spacing="2.5">MONTAGE</text>
    <text x="110" y="200" text-anchor="middle" font-family="Arial" font-size="8" fill="#555" letter-spacing="1">DaVinci Resolve</text>
  </g>


  <!-- ========== ARROW 2→3 ========== -->
  <g opacity="0.6">
    <line x1="515" y1="200" x2="570" y2="200" stroke="#c9a962" stroke-width="1.2" stroke-dasharray="5 4"/>
    <polygon points="568,196 578,200 568,204" fill="#c9a962" opacity="0.8"/>
  </g>


  <!-- ========== STEP 3: COLORIMÉTRIE ========== -->
  <g transform="translate(580, 90)">
    <!-- Card -->
    <rect width="240" height="220" rx="10" fill="url(#cardBg)" stroke="#2a2a50" stroke-width="1"/>

    <!-- Screen -->
    <rect x="12" y="14" width="216" height="130" rx="5" fill="#0d0d1a" stroke="#333" stroke-width="0.8"/>

    <!-- Color wheels -->
    <!-- Lift -->
    <g transform="translate(52, 55)">
      <circle r="28" fill="none" stroke="#3a3a5a" stroke-width="1.2"/>
      <circle r="23" fill="none" stroke="#2a2a45" stroke-width="0.5"/>
      <circle r="4" fill="#3498db" opacity="0.85" filter="url(#glow)"/>
      <circle cx="-2" cy="-2" r="1.5" fill="#5dade2"/>
      <text y="38" text-anchor="middle" font-family="Arial" font-size="7" fill="#555">LIFT</text>
    </g>

    <!-- Gamma -->
    <g transform="translate(120, 55)">
      <circle r="28" fill="none" stroke="#3a3a5a" stroke-width="1.2"/>
      <circle r="23" fill="none" stroke="#2a2a45" stroke-width="0.5"/>
      <circle r="4" fill="#2ecc71" opacity="0.85" filter="url(#glow)"/>
      <circle cx="2" cy="-1" r="1.5" fill="#58d68d"/>
      <text y="38" text-anchor="middle" font-family="Arial" font-size="7" fill="#555">GAMMA</text>
    </g>

    <!-- Gain -->
    <g transform="translate(188, 55)">
      <circle r="28" fill="none" stroke="#3a3a5a" stroke-width="1.2"/>
      <circle r="23" fill="none" stroke="#2a2a45" stroke-width="0.5"/>
      <circle r="4" fill="#e74c3c" opacity="0.85" filter="url(#glow)"/>
      <circle cx="2" cy="2" r="1.5" fill="#ec7063"/>
      <text y="38" text-anchor="middle" font-family="Arial" font-size="7" fill="#555">GAIN</text>
    </g>

    <!-- Curves -->
    <rect x="18" y="100" width="100" height="36" rx="3" fill="#111125"/>
    <path d="M24 130 Q45 126 58 115 Q72 104 112 110" stroke="#c9a962" stroke-width="1.2" fill="none" opacity="0.6"/>
    <path d="M24 128 Q50 122 65 118 Q80 112 112 120" stroke="#e74c3c" stroke-width="0.8" fill="none" opacity="0.35"/>
    <path d="M24 132 Q42 130 60 120 Q78 110 112 108" stroke="#3498db" stroke-width="0.8" fill="none" opacity="0.35"/>

    <!-- Waveform -->
    <rect x="124" y="100" width="100" height="36" rx="3" fill="#111125"/>
    <g opacity="0.45">
      <path d="M130 130 L138 124 L144 126 L150 118 L156 122 L162 112 L168 116 L174 110 L180 114 L186 120 L192 116 L198 122 L204 118 L210 124 L218 120" stroke="#2ecc71" stroke-width="0.9" fill="none"/>
      <path d="M130 128 L138 122 L144 125 L150 116 L156 120 L162 114 L168 118 L174 108 L180 112 L186 118 L192 114 L198 120 L204 116 L210 122 L218 118" stroke="#3498db" stroke-width="0.9" fill="none"/>
    </g>

    <!-- Label -->
    <text x="120" y="175" text-anchor="middle" font-family="Arial, sans-serif" font-size="11" font-weight="700" fill="#c9a962" letter-spacing="2.5">COLORIMÉTRIE</text>
    <text x="120" y="190" text-anchor="middle" font-family="Arial" font-size="8" fill="#555" letter-spacing="1">Color Grading</text>
  </g>


  <!-- ========== ARROW 3→4 ========== -->
  <g opacity="0.6">
    <line x1="835" y1="200" x2="890" y2="200" stroke="#c9a962" stroke-width="1.2" stroke-dasharray="5 4"/>
    <polygon points="888,196 898,200 888,204" fill="#c9a962" opacity="0.8"/>
  </g>


  <!-- ========== STEP 4: RENDU ========== -->
  <g transform="translate(900, 90)">
    <!-- Card -->
    <rect width="180" height="220" rx="10" fill="url(#cardBg)" stroke="#2a2a50" stroke-width="1"/>

    <!-- Screen -->
    <rect x="14" y="14" width="152" height="90" rx="5" fill="#0d0d1a" stroke="#333" stroke-width="0.8"/>

    <!-- Render progress -->
    <text x="90" y="42" text-anchor="middle" font-family="Arial" font-size="7" fill="#888" letter-spacing="0.5">Rendering...</text>
    <rect x="28" y="50" width="124" height="7" rx="3.5" fill="#1a1a30"/>
    <rect x="28" y="50" width="83" height="7" rx="3.5" fill="url(#gold)" filter="url(#glow)"/>

    <!-- Percentage -->
    <text x="90" y="80" text-anchor="middle" font-family="Arial, sans-serif" font-size="22" font-weight="800" fill="#c9a962" filter="url(#goldGlow)">67%</text>
    <text x="90" y="95" text-anchor="middle" font-family="Arial" font-size="7" fill="#555">ETA: 2min 30s</text>

    <!-- File outputs -->
    <g transform="translate(25, 115)">
      <!-- MP4 -->
      <rect width="38" height="42" rx="4" fill="#111125" stroke="#2a2a50" stroke-width="0.8"/>
      <rect x="8" y="5" width="22" height="16" rx="2" fill="#1a1a30"/>
      <polygon points="16,10 22,14 16,18" fill="#c9a962" opacity="0.5"/>
      <rect x="4" y="25" width="30" height="4" rx="1" fill="#333"/>
      <text x="19" y="40" text-anchor="middle" font-family="Arial" font-size="6" font-weight="600" fill="#888">.MP4</text>

      <!-- MOV -->
      <g transform="translate(46, 0)">
        <rect width="38" height="42" rx="4" fill="#111125" stroke="#2a2a50" stroke-width="0.8"/>
        <rect x="8" y="5" width="22" height="16" rx="2" fill="#1a1a30"/>
        <polygon points="16,10 22,14 16,18" fill="#3498db" opacity="0.5"/>
        <rect x="4" y="25" width="30" height="4" rx="1" fill="#333"/>
        <text x="19" y="40" text-anchor="middle" font-family="Arial" font-size="6" font-weight="600" fill="#888">.MOV</text>
      </g>

      <!-- ProRes -->
      <g transform="translate(92, 0)">
        <rect width="38" height="42" rx="4" fill="#111125" stroke="#2a2a50" stroke-width="0.8"/>
        <rect x="8" y="5" width="22" height="16" rx="2" fill="#1a1a30"/>
        <polygon points="16,10 22,14 16,18" fill="#2ecc71" opacity="0.5"/>
        <rect x="4" y="25" width="30" height="4" rx="1" fill="#333"/>
        <text x="19" y="40" text-anchor="middle" font-family="Arial" font-size="5.5" font-weight="600" fill="#888">ProRes</text>
      </g>
    </g>

    <!-- Label -->
    <text x="90" y="185" text-anchor="middle" font-family="Arial, sans-serif" font-size="11" font-weight="700" fill="#c9a962" letter-spacing="2.5">RENDU</text>
    <text x="90" y="200" text-anchor="middle" font-family="Arial" font-size="8" fill="#555" letter-spacing="1">Export</text>
  </g>


  <!-- ========== ARROW 4→5 ========== -->
  <g opacity="0.6">
    <line x1="1095" y1="200" x2="1150" y2="200" stroke="#c9a962" stroke-width="1.2" stroke-dasharray="5 4"/>
    <polygon points="1148,196 1158,200 1148,204" fill="#c9a962" opacity="0.8"/>
  </g>


  <!-- ========== STEP 5: PUBLICATION ========== -->
  <g transform="translate(1160, 90)">
    <!-- Card -->
    <rect width="200" height="220" rx="10" fill="url(#cardBg)" stroke="#2a2a50" stroke-width="1"/>

    <!-- YouTube -->
    <g transform="translate(18, 18)">
      <rect width="164" height="48" rx="6" fill="#111125" stroke="#2a2a50" stroke-width="0.6"/>
      <rect x="10" y="9" width="40" height="30" rx="6" fill="#FF0000" opacity="0.85"/>
      <polygon points="26,18 26,33 37,25.5" fill="#fff"/>
      <text x="68" y="22" font-family="Arial" font-size="9" font-weight="700" fill="#fff" opacity="0.85">YouTube</text>
      <text x="68" y="34" font-family="Arial" font-size="6.5" fill="#666">Upload en 4K</text>
    </g>

    <!-- Instagram -->
    <g transform="translate(18, 76)">
      <rect width="164" height="48" rx="6" fill="#111125" stroke="#2a2a50" stroke-width="0.6"/>
      <g transform="translate(10, 8)">
        <rect width="32" height="32" rx="8" fill="none" stroke="#E1306C" stroke-width="2.2" opacity="0.85"/>
        <circle cx="16" cy="16" r="7.5" fill="none" stroke="#E1306C" stroke-width="1.8" opacity="0.85"/>
        <circle cx="25" cy="7" r="2" fill="#E1306C" opacity="0.85"/>
      </g>
      <text x="58" y="22" font-family="Arial" font-size="9" font-weight="700" fill="#fff" opacity="0.85">Instagram</text>
      <text x="58" y="34" font-family="Arial" font-size="6.5" fill="#666">Reels &amp; Posts</text>
    </g>

    <!-- TikTok -->
    <g transform="translate(18, 134)">
      <rect width="164" height="48" rx="6" fill="#111125" stroke="#2a2a50" stroke-width="0.6"/>
      <g transform="translate(14, 10)">
        <path d="M12 0 L12 20 C12 24 9 27 5 27 C1 27 -2 24 -2 20 C-2 16 1 13 5 13 L5 16 C3 16 1 18 1 20 C1 22 3 24 5 24 C7 24 9 22 9 20 L9 0 L12 0 C12 3 14 6 18 6 L18 9 C14 9 12 7 12 7" fill="#fff" opacity="0.85"/>
        <path d="M13.5 0 L13.5 20 C13.5 24 10.5 27 6.5 27" stroke="#25F4EE" stroke-width="1.2" fill="none" opacity="0.45"/>
        <path d="M10.5 0 L10.5 20 C10.5 24 7.5 27 3.5 27" stroke="#FE2C55" stroke-width="1.2" fill="none" opacity="0.45"/>
      </g>
      <text x="58" y="22" font-family="Arial" font-size="9" font-weight="700" fill="#fff" opacity="0.85">TikTok</text>
      <text x="58" y="34" font-family="Arial" font-size="6.5" fill="#666">Shorts verticaux</text>
    </g>

    <!-- Label -->
    <text x="100" y="205" text-anchor="middle" font-family="Arial, sans-serif" font-size="11" font-weight="700" fill="#c9a962" letter-spacing="2.5">PUBLICATION</text>
  </g>


  <!-- ========== DECORATIVE ELEMENTS ========== -->
  <!-- Ambient glow spots -->
  <circle cx="115" cy="200" r="80" fill="#c9a962" opacity="0.015"/>
  <circle cx="390" cy="200" r="100" fill="#3498db" opacity="0.012"/>
  <circle cx="700" cy="200" r="100" fill="#e74c3c" opacity="0.01"/>
  <circle cx="990" cy="200" r="80" fill="#c9a962" opacity="0.015"/>
  <circle cx="1260" cy="200" r="90" fill="#2ecc71" opacity="0.012"/>

  <!-- Bottom line -->
  <line x1="60" y1="370" x2="1340" y2="370" stroke="#c9a962" stroke-width="0.5" opacity="0.1"/>
  <g opacity="0.25" fill="#c9a962">
    <circle cx="60" cy="370" r="2.5"/>
    <circle cx="300" cy="370" r="2.5"/>
    <circle cx="580" cy="370" r="2.5"/>
    <circle cx="890" cy="370" r="2.5"/>
    <circle cx="1160" cy="370" r="2.5"/>
    <circle cx="1340" cy="370" r="2.5"/>
  </g>

  <!-- Title bottom -->
  <text x="700" y="400" text-anchor="middle" font-family="Arial, sans-serif" font-size="10" fill="#c9a962" opacity="0.3" letter-spacing="8">DE LA CAPTATION À LA DIFFUSION</text>
</svg>
