<svg xmlns="http://www.w3.org/2000/svg" viewBox="0 0 800 360" fill="none">
  <defs>
    <linearGradient id="bgm" x1="0" y1="0" x2="800" y2="360" gradientUnits="userSpaceOnUse">
      <stop offset="0%" stop-color="#e8e8e8"/>
      <stop offset="50%" stop-color="#ebebeb"/>
      <stop offset="100%" stop-color="#e8e8e8"/>
    </linearGradient>
    <linearGradient id="goldm" x1="0" y1="0" x2="1" y2="0">
      <stop offset="0%" stop-color="#b8954f"/>
      <stop offset="100%" stop-color="#d4af6a"/>
    </linearGradient>
    <linearGradient id="cardBgm" x1="0" y1="0" x2="0" y2="1">
      <stop offset="0%" stop-color="#ffffff"/>
      <stop offset="100%" stop-color="#f8f8f8"/>
    </linearGradient>
    <filter id="shadowm" x="-12%" y="-8%" width="136%" height="132%">
      <feDropShadow dx="0" dy="2" stdDeviation="5" flood-color="#00000012"/>
    </filter>
    <filter id="glowm">
      <feGaussianBlur stdDeviation="2" result="b"/>
      <feMerge><feMergeNode in="b"/><feMergeNode in="SourceGraphic"/></feMerge>
    </filter>
    <filter id="goldGlowm">
      <feGaussianBlur stdDeviation="3" result="b"/>
      <feMerge><feMergeNode in="b"/><feMergeNode in="SourceGraphic"/></feMerge>
    </filter>
  </defs>

  <!-- Background -->
  <rect width="800" height="360" fill="url(#bgm)"/>

  <!-- Dot grid (sparse) -->
  <g opacity="0.07" fill="#333333">
    <circle cx="75"  cy="60"  r="1"/><circle cx="238" cy="60"  r="1"/><circle cx="400" cy="60"  r="1"/><circle cx="562" cy="60"  r="1"/><circle cx="725" cy="60"  r="1"/>
    <circle cx="75"  cy="140" r="1"/><circle cx="238" cy="140" r="1"/><circle cx="400" cy="140" r="1"/><circle cx="562" cy="140" r="1"/><circle cx="725" cy="140" r="1"/>
    <circle cx="75"  cy="220" r="1"/><circle cx="238" cy="220" r="1"/><circle cx="400" cy="220" r="1"/><circle cx="562" cy="220" r="1"/><circle cx="725" cy="220" r="1"/>
    <circle cx="75"  cy="300" r="1"/><circle cx="238" cy="300" r="1"/><circle cx="400" cy="300" r="1"/><circle cx="562" cy="300" r="1"/><circle cx="725" cy="300" r="1"/>
    <circle cx="157" cy="100" r="1"/><circle cx="319" cy="100" r="1"/><circle cx="481" cy="100" r="1"/><circle cx="643" cy="100" r="1"/>
    <circle cx="157" cy="180" r="1"/><circle cx="319" cy="180" r="1"/><circle cx="481" cy="180" r="1"/><circle cx="643" cy="180" r="1"/>
    <circle cx="157" cy="260" r="1"/><circle cx="319" cy="260" r="1"/><circle cx="481" cy="260" r="1"/><circle cx="643" cy="260" r="1"/>
  </g>

  <!-- ── Step number circles ── -->
  <circle cx="75"  cy="22" r="14" fill="none" stroke="#b8954f" stroke-width="1" opacity="0.5"/>
  <text x="75"  y="27" text-anchor="middle" font-family="Arial" font-size="13" font-weight="700" fill="#b8954f" opacity="0.7">1</text>

  <circle cx="238" cy="22" r="14" fill="none" stroke="#b8954f" stroke-width="1" opacity="0.5"/>
  <text x="238" y="27" text-anchor="middle" font-family="Arial" font-size="13" font-weight="700" fill="#b8954f" opacity="0.7">2</text>

  <circle cx="400" cy="22" r="14" fill="none" stroke="#b8954f" stroke-width="1" opacity="0.5"/>
  <text x="400" y="27" text-anchor="middle" font-family="Arial" font-size="13" font-weight="700" fill="#b8954f" opacity="0.7">3</text>

  <circle cx="562" cy="22" r="14" fill="none" stroke="#b8954f" stroke-width="1" opacity="0.5"/>
  <text x="562" y="27" text-anchor="middle" font-family="Arial" font-size="13" font-weight="700" fill="#b8954f" opacity="0.7">4</text>

  <circle cx="725" cy="22" r="14" fill="none" stroke="#b8954f" stroke-width="1" opacity="0.5"/>
  <text x="725" y="27" text-anchor="middle" font-family="Arial" font-size="13" font-weight="700" fill="#b8954f" opacity="0.7">5</text>


  <!-- ═══ STEP 1 : TOURNAGE ═══  card x=25..125, center x=75 -->
  <g transform="translate(25, 38)">
    <rect width="100" height="230" rx="8" fill="url(#cardBgm)" stroke="#e0e0e0" stroke-width="1" filter="url(#shadowm)"/>

    <!-- Camera body group, centered in 100px card -->
    <g transform="translate(7, 25)">
      <!-- Body -->
      <rect x="0" y="20" width="63" height="40" rx="5" fill="#d0d0d0" stroke="#bbbbbb" stroke-width="1"/>
      <!-- Top plate -->
      <rect x="12" y="10" width="36" height="12" rx="4" fill="#dedede" stroke="#cccccc" stroke-width="0.8"/>
      <!-- Hot shoe -->
      <rect x="21" y="4" width="18" height="8" rx="2" fill="#cccccc"/>
      <!-- Grip -->
      <rect x="63" y="23" width="9" height="34" rx="3" fill="#bbbbbb" stroke="#aaaaaa" stroke-width="0.7"/>
      <!-- Lens mount -->
      <rect x="72" y="26" width="14" height="28" rx="4" fill="#aaaaaa" stroke="#999999" stroke-width="0.8"/>
      <!-- Lens outer -->
      <circle cx="79" cy="40" r="12" fill="#777777" stroke="#666666" stroke-width="1"/>
      <!-- Lens inner -->
      <circle cx="79" cy="40" r="8" fill="#555555"/>
      <!-- Lens iris (gold) -->
      <circle cx="79" cy="40" r="4" fill="#b8954f" opacity="0.6" filter="url(#glowm)"/>
      <!-- LCD screen -->
      <rect x="2" y="26" width="26" height="18" rx="2" fill="#e0e0e0" stroke="#cccccc" stroke-width="0.5"/>
      <rect x="4" y="28" width="22" height="14" rx="1" fill="#c8ddc8" opacity="0.7"/>
      <!-- REC dot -->
      <circle cx="8" cy="32" r="2.5" fill="#e74c3c" filter="url(#glowm)"/>
      <text x="14" y="35" font-family="Arial" font-size="4.5" font-weight="700" fill="#e74c3c">REC</text>
      <!-- Buttons -->
      <circle cx="10" cy="54" r="2.5" fill="#bbbbbb" stroke="#aaaaaa" stroke-width="0.5"/>
      <circle cx="20" cy="54" r="2.5" fill="#bbbbbb" stroke="#aaaaaa" stroke-width="0.5"/>
      <rect x="28" y="51" width="10" height="6" rx="2" fill="#b8954f" opacity="0.5"/>
    </g>

    <!-- Tripod -->
    <g transform="translate(30, 99)" opacity="0.4">
      <rect x="8" y="0" width="4" height="6" rx="1" fill="#bbbbbb"/>
      <line x1="10" y1="6" x2="-2" y2="44" stroke="#cccccc" stroke-width="1.5" stroke-linecap="round"/>
      <line x1="10" y1="6" x2="10" y2="47" stroke="#cccccc" stroke-width="1.5" stroke-linecap="round"/>
      <line x1="10" y1="6" x2="22" y2="44" stroke="#cccccc" stroke-width="1.5" stroke-linecap="round"/>
    </g>

    <text x="50" y="195" text-anchor="middle" font-family="Arial, sans-serif" font-size="9" font-weight="700" fill="#b8954f" letter-spacing="2">TOURNAGE</text>
    <text x="50" y="210" text-anchor="middle" font-family="Arial" font-size="7.5" fill="#999999" letter-spacing="0.8">Captation</text>
  </g>


  <!-- ── Arrow 1→2 ── -->
  <g opacity="0.55">
    <line x1="132" y1="153" x2="181" y2="153" stroke="#b8954f" stroke-width="1.2" stroke-dasharray="5 4"/>
    <polygon points="179,149 189,153 179,157" fill="#b8954f" opacity="0.8"/>
  </g>


  <!-- ═══ STEP 2 : MONTAGE ═══  card x=188..288, center x=238 -->
  <g transform="translate(188, 38)">
    <rect width="100" height="230" rx="8" fill="url(#cardBgm)" stroke="#e0e0e0" stroke-width="1" filter="url(#shadowm)"/>

    <!-- Monitor -->
    <rect x="10" y="20" width="80" height="55" rx="4" fill="#eeeeee" stroke="#dddddd" stroke-width="0.8"/>
    <rect x="14" y="24" width="72" height="47" rx="2" fill="#e0e0e0"/>
    <!-- Play triangle -->
    <polygon points="42,42 42,56 56,49" fill="#b8954f" opacity="0.75"/>
    <!-- Stand -->
    <rect x="40" y="75" width="20" height="5" rx="2" fill="#dddddd"/>
    <rect x="33" y="80" width="34" height="4" rx="2" fill="#dddddd"/>

    <!-- Timeline area -->
    <rect x="10" y="96" width="80" height="45" rx="3" fill="#e0e0e0"/>
    <!-- Track rouge -->
    <rect x="15" y="102" width="30" height="6" rx="2" fill="#e74c3c" opacity="0.5"/>
    <rect x="49" y="102" width="20" height="6" rx="2" fill="#e67e22" opacity="0.5"/>
    <rect x="73" y="102" width="12" height="6" rx="2" fill="#e74c3c" opacity="0.3"/>
    <!-- Track bleu -->
    <rect x="15" y="112" width="18" height="6" rx="2" fill="#3498db" opacity="0.4"/>
    <rect x="37" y="112" width="28" height="6" rx="2" fill="#2980b9" opacity="0.4"/>
    <rect x="69" y="112" width="16" height="6" rx="2" fill="#3498db" opacity="0.3"/>
    <!-- Track audio -->
    <rect x="15" y="122" width="52" height="4" rx="2" fill="#2ecc71" opacity="0.3"/>
    <rect x="71" y="122" width="14" height="4" rx="2" fill="#27ae60" opacity="0.3"/>
    <!-- Playhead -->
    <line x1="50" y1="99" x2="50" y2="136" stroke="#b8954f" stroke-width="1.2" filter="url(#glowm)"/>
    <polygon points="47,98 53,98 50,95" fill="#b8954f"/>

    <!-- DaVinci tabs -->
    <g transform="translate(10, 148)">
      <rect width="22" height="9" rx="2" fill="#b8954f" opacity="0.25"/>
      <text x="11" y="6.5" text-anchor="middle" font-family="Arial" font-size="4.5" fill="#b8954f">Edit</text>
      <rect x="25" y="0" width="22" height="9" rx="2" fill="#dddddd" opacity="0.7"/>
      <text x="36" y="6.5" text-anchor="middle" font-family="Arial" font-size="4.5" fill="#999999">Color</text>
      <rect x="51" y="0" width="30" height="9" rx="2" fill="#dddddd" opacity="0.7"/>
      <text x="66" y="6.5" text-anchor="middle" font-family="Arial" font-size="4.5" fill="#999999">Deliver</text>
    </g>

    <text x="50" y="195" text-anchor="middle" font-family="Arial, sans-serif" font-size="9" font-weight="700" fill="#b8954f" letter-spacing="2">MONTAGE</text>
    <text x="50" y="210" text-anchor="middle" font-family="Arial" font-size="7.5" fill="#999999" letter-spacing="0.8">DaVinci Resolve</text>
  </g>


  <!-- ── Arrow 2→3 ── -->
  <g opacity="0.55">
    <line x1="295" y1="153" x2="344" y2="153" stroke="#b8954f" stroke-width="1.2" stroke-dasharray="5 4"/>
    <polygon points="342,149 352,153 342,157" fill="#b8954f" opacity="0.8"/>
  </g>


  <!-- ═══ STEP 3 : COLORIMÉTRIE ═══  card x=350..450, center x=400 -->
  <g transform="translate(350, 38)">
    <rect width="100" height="230" rx="8" fill="url(#cardBgm)" stroke="#e0e0e0" stroke-width="1" filter="url(#shadowm)"/>

    <!-- 3 color wheels (r=16, centres à x=17, 50, 83) -->
    <g transform="translate(17, 55)">
      <circle r="18" fill="none" stroke="#cccccc" stroke-width="1.2"/>
      <circle r="14" fill="none" stroke="#dddddd" stroke-width="0.5"/>
      <circle r="3.5" fill="#3498db" opacity="0.9" filter="url(#glowm)"/>
      <circle cx="-1" cy="-1" r="1.5" fill="#5dade2"/>
      <text y="27" text-anchor="middle" font-family="Arial" font-size="6" fill="#999999">LIFT</text>
    </g>

    <g transform="translate(50, 55)">
      <circle r="18" fill="none" stroke="#cccccc" stroke-width="1.2"/>
      <circle r="14" fill="none" stroke="#dddddd" stroke-width="0.5"/>
      <circle r="3.5" fill="#2ecc71" opacity="0.9" filter="url(#glowm)"/>
      <circle cx="1" cy="-1" r="1.5" fill="#58d68d"/>
      <text y="27" text-anchor="middle" font-family="Arial" font-size="5.5" fill="#999999">GAMMA</text>
    </g>

    <g transform="translate(83, 55)">
      <circle r="18" fill="none" stroke="#cccccc" stroke-width="1.2"/>
      <circle r="14" fill="none" stroke="#dddddd" stroke-width="0.5"/>
      <circle r="3.5" fill="#e74c3c" opacity="0.9" filter="url(#glowm)"/>
      <circle cx="1" cy="1" r="1.5" fill="#ec7063"/>
      <text y="27" text-anchor="middle" font-family="Arial" font-size="6" fill="#999999">GAIN</text>
    </g>

    <!-- Courbes -->
    <rect x="10" y="100" width="42" height="32" rx="3" fill="#e8e8e8"/>
    <path d="M14 126 Q24 122 30 114 Q36 106 48 111" stroke="#b8954f" stroke-width="1.2" fill="none" opacity="0.7"/>
    <path d="M14 124 Q25 118 32 114 Q39 109 48 116" stroke="#e74c3c" stroke-width="0.8" fill="none" opacity="0.4"/>
    <path d="M14 128 Q22 124 31 116 Q40 108 48 106" stroke="#3498db" stroke-width="0.8" fill="none" opacity="0.4"/>

    <!-- Waveform -->
    <rect x="56" y="100" width="34" height="32" rx="3" fill="#e8e8e8"/>
    <g opacity="0.5">
      <path d="M59 128 L63 122 L66 124 L70 116 L73 120 L77 112 L80 116 L84 120 L87 116" stroke="#2ecc71" stroke-width="0.9" fill="none"/>
      <path d="M59 126 L63 120 L66 122 L70 114 L73 118 L77 110 L80 114 L84 118 L87 114" stroke="#3498db" stroke-width="0.9" fill="none"/>
    </g>

    <!-- LUT strip -->
    <rect x="10" y="140" width="80" height="12" rx="3" fill="#e0e0e0" opacity="0.6"/>
    <rect x="10" y="140" width="20" height="12" rx="3" fill="#c0392b" opacity="0.22"/>
    <rect x="30" y="140" width="20" height="12" fill="#d4af6a" opacity="0.22"/>
    <rect x="50" y="140" width="20" height="12" fill="#2ecc71" opacity="0.18"/>
    <rect x="70" y="140" width="20" height="12" rx="3" fill="#3498db" opacity="0.18"/>

    <text x="50" y="195" text-anchor="middle" font-family="Arial, sans-serif" font-size="8" font-weight="700" fill="#b8954f" letter-spacing="1.2">COLORIMÉTRIE</text>
    <text x="50" y="210" text-anchor="middle" font-family="Arial" font-size="7.5" fill="#999999" letter-spacing="0.8">Color Grading</text>
  </g>


  <!-- ── Arrow 3→4 ── -->
  <g opacity="0.55">
    <line x1="457" y1="153" x2="506" y2="153" stroke="#b8954f" stroke-width="1.2" stroke-dasharray="5 4"/>
    <polygon points="504,149 514,153 504,157" fill="#b8954f" opacity="0.8"/>
  </g>


  <!-- ═══ STEP 4 : RENDU ═══  card x=512..612, center x=562 -->
  <g transform="translate(512, 38)">
    <rect width="100" height="230" rx="8" fill="url(#cardBgm)" stroke="#e0e0e0" stroke-width="1" filter="url(#shadowm)"/>

    <!-- Monitor frame -->
    <rect x="10" y="20" width="80" height="60" rx="4" fill="#eeeeee" stroke="#dddddd" stroke-width="0.8"/>
    <text x="50" y="40" text-anchor="middle" font-family="Arial" font-size="6.5" fill="#999999" letter-spacing="0.5">Rendering...</text>
    <!-- Progress bar -->
    <rect x="17" y="48" width="66" height="7" rx="3.5" fill="#e0e0e0"/>
    <rect x="17" y="48" width="44" height="7" rx="3.5" fill="url(#goldm)" filter="url(#glowm)"/>
    <!-- Percentage -->
    <text x="50" y="74" text-anchor="middle" font-family="Arial" font-size="18" font-weight="800" fill="#b8954f" filter="url(#goldGlowm)">67%</text>
    <text x="50" y="86" text-anchor="middle" font-family="Arial" font-size="6" fill="#999999">ETA: 2min 30s</text>

    <!-- Fichiers sortie -->
    <g transform="translate(9, 100)">
      <!-- MP4 -->
      <rect width="24" height="32" rx="3" fill="#f5f5f5" stroke="#e0e0e0" stroke-width="0.8"/>
      <rect x="5" y="4" width="14" height="11" rx="2" fill="#e8e8e8"/>
      <polygon points="10,7 10,13 16,10" fill="#b8954f" opacity="0.6"/>
      <text x="12" y="30" text-anchor="middle" font-family="Arial" font-size="5" font-weight="600" fill="#999999">.MP4</text>

      <!-- MOV -->
      <g transform="translate(30, 0)">
        <rect width="24" height="32" rx="3" fill="#f5f5f5" stroke="#e0e0e0" stroke-width="0.8"/>
        <rect x="5" y="4" width="14" height="11" rx="2" fill="#e8e8e8"/>
        <polygon points="10,7 10,13 16,10" fill="#3498db" opacity="0.5"/>
        <text x="12" y="30" text-anchor="middle" font-family="Arial" font-size="5" font-weight="600" fill="#999999">.MOV</text>
      </g>

      <!-- ProRes -->
      <g transform="translate(60, 0)">
        <rect width="26" height="32" rx="3" fill="#f5f5f5" stroke="#e0e0e0" stroke-width="0.8"/>
        <rect x="5" y="4" width="16" height="11" rx="2" fill="#e8e8e8"/>
        <polygon points="11,7 11,13 17,10" fill="#2ecc71" opacity="0.5"/>
        <text x="13" y="30" text-anchor="middle" font-family="Arial" font-size="4.5" font-weight="600" fill="#999999">ProRes</text>
      </g>
    </g>

    <!-- Badges qualité -->
    <g transform="translate(9, 143)">
      <rect width="30" height="13" rx="6" fill="#b8954f" opacity="0.15"/>
      <text x="15" y="9.5" text-anchor="middle" font-family="Arial" font-size="5.5" font-weight="700" fill="#b8954f">4K UHD</text>
      <rect x="34" y="0" width="36" height="13" rx="6" fill="#b8954f" opacity="0.1"/>
      <text x="52" y="9.5" text-anchor="middle" font-family="Arial" font-size="5" font-weight="700" fill="#b8954f">H.264 / H.265</text>
    </g>

    <text x="50" y="195" text-anchor="middle" font-family="Arial, sans-serif" font-size="9" font-weight="700" fill="#b8954f" letter-spacing="2">RENDU</text>
    <text x="50" y="210" text-anchor="middle" font-family="Arial" font-size="7.5" fill="#999999" letter-spacing="0.8">Export</text>
  </g>


  <!-- ── Arrow 4→5 ── -->
  <g opacity="0.55">
    <line x1="619" y1="153" x2="668" y2="153" stroke="#b8954f" stroke-width="1.2" stroke-dasharray="5 4"/>
    <polygon points="666,149 676,153 666,157" fill="#b8954f" opacity="0.8"/>
  </g>


  <!-- ═══ STEP 5 : PUBLICATION ═══  card x=675..775, center x=725 -->
  <g transform="translate(675, 38)">
    <rect width="100" height="230" rx="8" fill="url(#cardBgm)" stroke="#e0e0e0" stroke-width="1" filter="url(#shadowm)"/>

    <!-- YouTube -->
    <g transform="translate(8, 20)">
      <rect width="84" height="36" rx="5" fill="#f5f5f5" stroke="#e8e8e8" stroke-width="0.6"/>
      <rect x="8" y="6" width="26" height="22" rx="5" fill="#FF0000" opacity="0.85"/>
      <polygon points="18,13 18,23 26,18" fill="#ffffff"/>
      <text x="47" y="18" font-family="Arial" font-size="8" font-weight="700" fill="#333333">YouTube</text>
      <text x="47" y="28" font-family="Arial" font-size="6" fill="#999999">Upload 4K</text>
    </g>

    <!-- Instagram -->
    <g transform="translate(8, 64)">
      <rect width="84" height="36" rx="5" fill="#f5f5f5" stroke="#e8e8e8" stroke-width="0.6"/>
      <g transform="translate(8, 4)">
        <rect width="24" height="24" rx="6" fill="none" stroke="#E1306C" stroke-width="2" opacity="0.85"/>
        <circle cx="12" cy="12" r="5.5" fill="none" stroke="#E1306C" stroke-width="1.5" opacity="0.85"/>
        <circle cx="18.5" cy="5.5" r="1.5" fill="#E1306C" opacity="0.85"/>
      </g>
      <text x="47" y="18" font-family="Arial" font-size="8" font-weight="700" fill="#333333">Instagram</text>
      <text x="47" y="28" font-family="Arial" font-size="6" fill="#999999">Reels &amp; Posts</text>
    </g>

    <!-- TikTok -->
    <g transform="translate(8, 108)">
      <rect width="84" height="36" rx="5" fill="#f5f5f5" stroke="#e8e8e8" stroke-width="0.6"/>
      <g transform="translate(14, 5)">
        <path d="M8 0 L8 14 C8 17 6 19 3 19 C0 19 -2 17 -2 14 C-2 11 0 9 3 9 L3 12 C1.5 12 0.5 13 0.5 14 C0.5 15.5 1.5 16.5 3 16.5 C4.5 16.5 5.5 15.5 5.5 14 L5.5 0 L8 0 C8 2.5 9.5 4.5 12 4.5 L12 7 C9.5 7 8 5.5 8 5.5" fill="#333333" opacity="0.85"/>
        <path d="M9.5 0 L9.5 14 C9.5 17 7 19 4 19" stroke="#25F4EE" stroke-width="1" fill="none" opacity="0.5"/>
        <path d="M6.5 0 L6.5 14 C6.5 17 4 19 1 19" stroke="#FE2C55" stroke-width="1" fill="none" opacity="0.5"/>
      </g>
      <text x="47" y="18" font-family="Arial" font-size="8" font-weight="700" fill="#333333">TikTok</text>
      <text x="47" y="28" font-family="Arial" font-size="6" fill="#999999">Shorts verticaux</text>
    </g>

    <!-- Lien privé client -->
    <g transform="translate(8, 153)">
      <rect width="84" height="27" rx="5" fill="#f5f5f5" stroke="#e8e8e8" stroke-width="0.6"/>
      <rect x="8" y="8" width="10" height="11" rx="2" fill="#b8954f" opacity="0.35"/>
      <text x="28" y="15.5" font-family="Arial" font-size="7" fill="#999999">Lien privé client</text>
    </g>

    <text x="50" y="198" text-anchor="middle" font-family="Arial, sans-serif" font-size="8" font-weight="700" fill="#b8954f" letter-spacing="1.5">PUBLICATION</text>
    <text x="50" y="212" text-anchor="middle" font-family="Arial" font-size="7.5" fill="#999999" letter-spacing="0.8">Diffusion</text>
  </g>


  <!-- Ambient glow circles -->
  <circle cx="75"  cy="153" r="65" fill="#b8954f" opacity="0.03"/>
  <circle cx="238" cy="153" r="80" fill="#3498db" opacity="0.02"/>
  <circle cx="400" cy="153" r="80" fill="#e74c3c" opacity="0.015"/>
  <circle cx="562" cy="153" r="65" fill="#b8954f" opacity="0.03"/>
  <circle cx="725" cy="153" r="75" fill="#2ecc71" opacity="0.02"/>

  <!-- Bottom decorative line -->
  <line x1="40" y1="296" x2="760" y2="296" stroke="#b8954f" stroke-width="0.5" opacity="0.2"/>
  <g opacity="0.4" fill="#b8954f">
    <circle cx="40"  cy="296" r="2.5"/>
    <circle cx="188" cy="296" r="2.5"/>
    <circle cx="350" cy="296" r="2.5"/>
    <circle cx="512" cy="296" r="2.5"/>
    <circle cx="675" cy="296" r="2.5"/>
    <circle cx="760" cy="296" r="2.5"/>
  </g>

  <!-- Caption -->
  <text x="400" y="328" text-anchor="middle" font-family="Arial, sans-serif" font-size="9" fill="#b8954f" opacity="0.3" letter-spacing="8">DE LA CAPTATION À LA DIFFUSION</text>
</svg>
